<?xml version="1.0" standalone="no"?>
<!DOCTYPE svg PUBLIC "-//W3C//DTD SVG 20010904//EN"
 "http://www.w3.org/TR/2001/REC-SVG-20010904/DTD/svg10.dtd">
<svg version="1.0" xmlns="http://www.w3.org/2000/svg"
 width="1024.000000pt" height="1024.000000pt" viewBox="0 0 1024.000000 1024.000000"
 preserveAspectRatio="xMidYMid meet">

<g transform="translate(0.000000,1024.000000) scale(0.100000,-0.100000)"
fill="#000000" stroke="none">
<path d="M4985 8441 c-151 -69 -210 -238 -134 -386 29 -56 77 -104 119 -116
l35 -11 -3 -444 -2 -444 -193 0 -192 0 -2 311 c-3 292 -2 314 18 372 50 149
-9 287 -150 350 -53 23 -147 20 -201 -8 -118 -59 -175 -217 -119 -328 57 -112
120 -157 219 -157 l60 0 0 -272 0 -273 -364 3 c-411 3 -459 -2 -584 -63 -136
-68 -238 -188 -299 -355 l-27 -75 -4 -397 -3 -398 -273 0 -273 0 23 47 c31 61
31 116 -1 180 -50 99 -132 153 -234 153 -136 0 -264 -159 -231 -287 26 -104
97 -195 184 -238 69 -34 252 -48 571 -43 l230 3 3 -157 2 -158 -414 0 c-228 0
-421 -3 -430 -6 -10 -4 -21 6 -34 33 -39 75 -109 121 -198 130 -107 11 -211
-46 -268 -147 -26 -45 -31 -66 -30 -115 1 -107 61 -202 156 -249 134 -67 305
-2 363 137 l15 37 420 0 420 0 0 -165 0 -165 -82 0 c-255 -1 -556 -20 -631
-39 -149 -37 -211 -80 -261 -180 -54 -108 -38 -222 43 -302 49 -50 96 -69 168
-69 86 0 217 71 247 134 31 66 16 179 -37 262 l-26 42 37 -9 c20 -5 152 -9
292 -9 l255 0 -3 -395 c-3 -434 1 -472 57 -583 54 -107 113 -175 203 -236 167
-111 198 -116 659 -116 318 0 359 -2 359 -16 0 -9 -5 -12 -12 -8 -6 4 -8 3 -5
-3 3 -5 7 -134 8 -287 l1 -277 -59 -4 c-220 -11 -310 -267 -151 -427 55 -55
99 -71 182 -66 127 7 206 68 237 183 14 51 6 152 -15 192 -14 28 -16 75 -14
366 l1 335 151 1 c83 1 167 4 187 7 l36 6 6 -143 c4 -79 7 -289 7 -466 l0
-321 -34 -12 c-38 -12 -111 -85 -127 -126 -39 -105 -28 -180 40 -275 116 -163
352 -141 447 42 27 53 29 129 5 207 -18 60 -28 77 -69 111 -26 23 -58 44 -71
48 l-24 6 6 291 c4 160 7 368 7 461 l0 170 90 2 c62 2 90 -1 90 -8 0 -12 131
-7 176 6 21 6 21 4 28 -172 3 -98 7 -248 8 -334 1 -142 0 -159 -19 -190 -50
-82 -54 -154 -13 -236 48 -96 124 -144 225 -144 80 0 137 24 186 78 90 100 88
243 -5 341 -43 47 -81 64 -151 71 -39 4 -60 10 -59 19 1 6 2 138 3 291 l1 280
388 3 c433 4 416 2 573 84 88 46 152 108 218 208 99 152 96 131 99 611 l3 420
269 0 c149 0 270 -1 270 -3 0 -1 -14 -28 -32 -59 -73 -129 -23 -270 117 -334
50 -23 173 -26 214 -4 42 21 128 119 141 161 7 22 10 62 7 95 -10 108 -77 188
-216 257 l-75 37 -245 7 c-136 3 -292 6 -349 7 l-103 1 3 168 3 167 417 3 416
2 7 -29 c9 -42 77 -116 133 -142 121 -59 289 -4 348 114 54 106 40 224 -39
313 -112 128 -327 114 -418 -26 l-32 -50 -419 0 -419 0 2 160 1 159 361 3 362
3 55 27 c70 34 143 107 176 175 53 107 15 240 -88 309 -100 67 -210 51 -308
-44 -88 -86 -99 -157 -39 -259 l18 -33 -268 0 -269 0 -5 373 c-5 417 -11 459
-74 587 -45 92 -159 210 -248 257 -129 68 -168 73 -577 73 l-368 0 0 275 0
275 55 0 c93 0 155 43 196 135 43 98 20 217 -59 298 -66 67 -180 83 -273 36
-47 -24 -118 -96 -137 -139 -23 -55 -18 -139 12 -206 l26 -56 0 -309 0 -309
-195 0 -195 0 0 253 c0 140 -3 342 -7 449 l-6 196 30 6 c46 10 99 61 130 124
53 109 26 242 -67 326 -69 62 -195 84 -275 47z m176 -180 c44 -43 50 -80 24
-131 -48 -92 -177 -72 -203 32 -19 76 30 136 112 138 20 0 40 -11 67 -39z
m-694 -363 c13 -13 26 -41 30 -61 5 -32 1 -41 -30 -72 -36 -36 -63 -43 -100
-24 -75 39 -91 107 -37 161 27 27 36 30 72 25 24 -3 51 -15 65 -29z m1378 6
c33 -35 40 -76 20 -113 -23 -45 -58 -65 -101 -58 -69 11 -103 72 -77 136 21
54 31 61 85 61 40 0 53 -5 73 -26z m548 -1167 c42 -14 90 -33 105 -42 118 -76
177 -147 218 -264 l24 -66 0 -1221 c0 -1196 0 -1222 -20 -1279 -59 -171 -194
-294 -375 -340 -88 -22 -2441 -23 -2528 0 -183 47 -309 169 -363 350 -17 56
-18 133 -18 1265 -1 1312 -3 1256 57 1375 51 101 119 159 252 212 l70 28 335
6 c184 3 747 5 1250 3 l915 -2 78 -25z m-3937 -782 c25 -17 54 -74 54 -105 0
-28 -62 -90 -90 -90 -30 0 -90 62 -90 93 0 42 21 87 49 102 34 18 52 18 77 0z
m5353 -11 c27 -22 31 -32 31 -72 -1 -74 -52 -122 -107 -101 -69 26 -92 84 -58
149 29 56 85 66 134 24z m-5674 -724 c24 -25 29 -38 28 -81 -2 -155 -210 -153
-216 3 -1 35 4 45 36 74 30 28 45 34 80 34 35 0 49 -6 72 -30z m6051 -4 c27
-27 34 -42 34 -74 0 -72 -69 -128 -136 -111 -68 19 -103 103 -70 168 19 37 45
49 100 50 30 1 45 -6 72 -33z m-391 -722 c63 -30 70 -111 13 -159 -54 -46
-138 -22 -153 45 -8 33 44 117 77 123 13 2 25 5 26 6 2 0 19 -6 37 -15z
m-5352 -6 c34 -18 46 -40 47 -84 0 -46 -26 -78 -72 -89 -39 -10 -96 12 -112
43 -12 24 -12 32 5 67 33 69 79 91 132 63z m3366 -1989 c63 -22 81 -110 32
-159 -41 -41 -77 -48 -121 -23 -48 28 -64 62 -51 109 20 74 67 98 140 73z
m-1344 -22 c34 -29 45 -96 21 -131 -22 -35 -85 -53 -126 -36 -79 33 -93 119
-26 172 31 26 99 23 131 -5z m683 -333 c13 -9 31 -32 39 -52 14 -35 14 -39 -7
-79 -21 -39 -68 -73 -102 -73 -32 0 -76 40 -93 83 -15 40 -15 48 -2 73 16 31
43 58 67 67 22 9 70 -1 98 -19z"/>
<path d="M3947 6560 c-62 -11 -163 -59 -210 -99 -20 -18 -50 -60 -67 -93 l-30
-61 0 -1167 0 -1167 30 -59 c38 -76 101 -140 170 -173 l55 -26 1184 -3 1185
-3 64 32 c79 39 127 87 170 171 l33 65 2 1164 2 1164 -33 67 c-38 78 -90 128
-177 169 l-60 29 -1135 -1 c-624 -1 -1157 -5 -1183 -9z m2268 -260 c45 -22 70
-56 80 -111 8 -44 -19 -104 -65 -143 -61 -50 -158 -29 -214 47 -28 37 -27 127
1 165 45 60 125 77 198 42z m-2101 -11 c34 -27 66 -89 66 -129 0 -73 -65 -140
-136 -140 -85 0 -144 49 -157 132 -7 46 14 86 67 127 49 39 118 43 160 10z
m1577 -465 c19 -23 25 -159 9 -179 -11 -13 -82 -15 -508 -15 l-495 0 7 -147
c4 -82 9 -172 12 -200 l6 -53 467 0 c406 0 469 -2 489 -16 20 -14 22 -24 22
-99 0 -78 -2 -86 -24 -100 -20 -13 -83 -15 -489 -13 -256 2 -468 1 -471 -3 -3
-3 -8 -142 -11 -308 -3 -184 -9 -309 -15 -316 -26 -31 -182 -23 -208 11 -12
16 -13 77 -6 414 5 217 7 530 5 696 -2 214 0 307 8 322 l12 22 588 0 c533 0
590 -2 602 -16z m-1583 -1574 c128 -78 72 -290 -76 -290 -22 0 -52 4 -66 10
-35 13 -77 81 -83 135 -7 56 9 96 54 135 28 25 42 30 86 30 34 0 63 -7 85 -20z
m2098 4 c95 -45 115 -156 43 -239 -62 -70 -172 -69 -227 2 -38 51 -43 135 -10
183 43 65 124 87 194 54z"/>
<path d="M7001 3484 c0 -11 3 -14 6 -6 3 7 2 16 -1 19 -3 4 -6 -2 -5 -13z"/>
<path d="M3230 3320 c6 -11 13 -20 16 -20 2 0 0 9 -6 20 -6 11 -13 20 -16 20
-2 0 0 -9 6 -20z"/>
<path d="M3250 3286 c0 -2 8 -10 18 -17 15 -13 16 -12 3 4 -13 16 -21 21 -21
13z"/>
</g>
</svg>
